<?xml version="1.0" standalone="no"?>
<!DOCTYPE svg PUBLIC "-//W3C//DTD SVG 20010904//EN"
 "http://www.w3.org/TR/2001/REC-SVG-20010904/DTD/svg10.dtd">
<svg version="1.0" xmlns="http://www.w3.org/2000/svg"
 width="326.000000pt" height="326.000000pt" viewBox="0 0 326.000000 326.000000"
 preserveAspectRatio="xMidYMid meet">
<metadata>
Created by potrace 1.11, written by Peter Selinger 2001-2013
</metadata>
<g transform="translate(0.000000,326.000000) scale(0.100000,-0.100000)"
fill="#000000" stroke="none">
<path d="M1445 3250 c-27 -5 -72 -11 -100 -15 -27 -4 -53 -9 -56 -11 -3 -2
-21 -6 -40 -9 -92 -16 -355 -121 -444 -177 -155 -98 -211 -143 -335 -268 -197
-199 -326 -415 -401 -675 -32 -108 -35 -120 -54 -245 -13 -84 -13 -384 -1
-445 3 -16 13 -65 21 -108 31 -158 106 -348 197 -502 85 -142 239 -320 363
-420 28 -22 52 -42 55 -45 3 -3 46 -32 95 -64 587 -377 1331 -343 1890 88 116
89 257 243 350 381 81 121 200 386 219 486 1 8 8 39 14 69 61 291 44 588 -49
862 -85 249 -212 452 -402 639 -233 231 -527 383 -857 445 -93 17 -384 26
-465 14z m400 -155 c22 -4 85 -18 140 -31 510 -127 913 -514 1060 -1020 14
-49 28 -105 31 -124 3 -19 8 -38 9 -41 7 -10 19 -173 19 -254 0 -416 -186
-825 -499 -1098 -342 -299 -761 -420 -1223 -351 -67 10 -222 53 -300 85 -184
73 -363 192 -504 336 -126 127 -203 235 -277 386 -41 86 -106 268 -116 330 -3
18 -8 39 -10 47 -27 99 -27 410 0 549 11 58 57 214 81 271 82 201 189 360 348
515 222 216 541 370 831 401 28 3 52 8 54 10 6 5 311 -4 356 -11z"/>
<path d="M1542 2282 c-9 -3 -12 -166 -12 -653 l0 -650 98 3 97 3 0 643 c0 354
-2 647 -5 650 -5 7 -159 11 -178 4z"/>
<path d="M920 2005 c-66 -17 -107 -41 -155 -90 -50 -50 -77 -99 -94 -172 -38
-158 1 -334 94 -428 94 -93 257 -124 430 -80 77 19 143 49 151 68 2 7 6 93 7
190 l2 177 -157 0 c-143 0 -158 -2 -159 -17 -1 -10 -2 -45 -2 -78 l-1 -60 62
-1 c34 0 64 -3 67 -5 5 -6 9 -52 6 -84 -3 -47 -154 -64 -228 -27 -27 14 -46
35 -63 69 -22 42 -25 61 -25 153 0 89 4 111 22 147 34 64 76 88 150 88 66 0
109 -21 128 -63 11 -26 19 -26 94 -8 31 8 68 17 83 20 26 6 27 8 16 34 -34 78
-113 145 -199 167 -59 16 -170 16 -229 0z"/>
<path d="M1924 1618 l0 -388 96 0 95 0 -3 141 c-3 102 -1 144 8 149 22 14 123
1 150 -18 31 -23 45 -51 87 -172 l33 -95 105 -3 c58 -1 105 0 105 3 0 3 -8 25
-19 48 -10 23 -36 83 -57 132 -47 111 -72 151 -104 165 l-25 12 30 13 c71 31
108 96 108 191 -1 95 -35 147 -123 187 -40 18 -68 20 -265 22 l-221 2 0 -389z
m391 210 c32 -25 35 -88 5 -118 -23 -23 -19 -22 -127 -25 l-83 -2 0 84 0 84
90 -2 c73 -1 96 -5 115 -21z"/>
</g>
</svg>
